nanook
<glyph name="quotesingle" format="1">
  <advance width="225"/>
  <unicode hex="0027"/>
  <outline>
    <contour>
      <point x="47" y="660" type="line"/>
      <point x="148" y="689"/>
      <point x="195" y="791"/>
      <point x="195" y="865" type="curve" smooth="yes"/>
      <point x="195" y="891"/>
      <point x="172" y="919"/>
      <point x="143" y="919" type="curve"/>
      <point x="121" y="919"/>
      <point x="92" y="897"/>
      <point x="92" y="865" type="curve"/>
      <point x="116" y="833" type="line" smooth="yes"/>
      <point x="134" y="809"/>
      <point x="101" y="716"/>
      <point x="30" y="696" type="curve"/>
    </contour>
  </outline>
</glyph>
<glyph name="parenleft" format="1">
  <advance width="361"/>
  <unicode hex="0028"/>
  <outline>
    <contour>
      <point x="323" y="-163" type="line"/>
      <point x="270" y="-163"/>
      <point x="109" y="3"/>
      <point x="109" y="301" type="curve" smooth="yes"/>
      <point x="109" y="602"/>
      <point x="265" y="772"/>
      <point x="324" y="772" type="curve"/>
      <point x="341" y="814" type="line"/>
      <point x="209" y="814"/>
      <point x="40" y="620"/>
      <point x="40" y="301" type="curve" smooth="yes"/>
      <point x="40" y="-38"/>
      <point x="228" y="-205"/>
      <point x="341" y="-205" type="curve"/>
    </contour>
  </outline>
</glyph>
<glyph name="parenright" format="1">
  <advance width="361"/>
  <unicode hex="0029"/>
  <outline>
    <contour>
      <point x="20" y="-205" type="line"/>
      <point x="133" y="-205"/>
      <point x="321" y="-38"/>
      <point x="321" y="301" type="curve" smooth="yes"/>
      <point x="321" y="620"/>
      <point x="152" y="814"/>
      <point x="20" y="814" type="curve"/>
      <point x="37" y="772" type="line"/>
      <point x="96" y="772"/>
      <point x="252" y="602"/>
      <point x="252" y="301" type="curve" smooth="yes"/>
      <point x="252" y="3"/>
      <point x="91" y="-163"/>
      <point x="38" y="-163" type="curve"/>
    </contour>
  </outline>
</glyph>
<glyph name="comma" format="1">
  <advance width="195"/>
  <unicode hex="002C"/>
  <outline>
    <contour>
      <point x="17" y="-140" type="line"/>
      <point x="118" y="-111"/>
      <point x="165" y="-9"/>
      <point x="165" y="65" type="curve" smooth="yes"/>
      <point x="165" y="91"/>
      <point x="142" y="119"/>
      <point x="113" y="119" type="curve" smooth="yes"/>
      <point x="91" y="119"/>
      <point x="62" y="97"/>
      <point x="62" y="65" type="curve"/>
      <point x="86" y="33" type="line" smooth="yes"/>
      <point x="104" y="9"/>
      <point x="71" y="-84"/>
      <point x="0" y="-104" type="curve"/>
    </contour>
  </outline>
</glyph>
<glyph name="hyphen" format="1">
  <advance width="352"/>
  <unicode hex="002D"/>
  <outline>
    <contour>
      <point x="155" y="230" type="curve"/>
      <point x="206" y="230" type="line"/>
      <point x="303" y="230"/>
      <point x="312" y="333"/>
      <point x="312" y="379" type="curve"/>
      <point x="271" y="361" type="line"/>
      <point x="271" y="341"/>
      <point x="249" y="317"/>
      <point x="196" y="317" type="curve"/>
      <point x="147" y="317" type="line"/>
      <point x="51" y="317"/>
      <point x="40" y="214"/>
      <point x="40" y="168" type="curve"/>
      <point x="81" y="186" type="line"/>
      <point x="81" y="205"/>
      <point x="101" y="230"/>
    </contour>
  </outline>
</glyph>
<glyph name="A" format="1">
  <advance width="661"/>
  <unicode hex="0041"/>
  <outline>
    <contour>
      <point x="360" y="927" type="line"/>
      <point x="293" y="927" type="line"/>
      <point x="90" y="90" type="line"/>
      <point x="20" y="39" type="line"/>
      <point x="20" y="0" type="line"/>
      <point x="222" y="0" type="line"/>
      <point x="222" y="39" type="line"/>
      <point x="156" y="89" type="line"/>
      <point x="230" y="400" type="line"/>
      <point x="417" y="400" type="line"/>
      <point x="499" y="83" type="line"/>
      <point x="439" y="39" type="line"/>
      <point x="439" y="0" type="line"/>
      <point x="641" y="0" type="line"/>
      <point x="641" y="39" type="line"/>
      <point x="583" y="84" type="line"/>
    </contour>
    <contour>
      <point x="320" y="776" type="line"/>
      <point x="393" y="492" type="line"/>
      <point x="252" y="492" type="line"/>
    </contour>
  </outline>
</glyph>
<glyph name="B" format="1">
  <advance width="578"/>
  <unicode hex="0042"/>
  <outline>
    <contour>
      <point x="474" y="727" type="curve" smooth="yes"/>
      <point x="474" y="842"/>
      <point x="385" y="920"/>
      <point x="263" y="920" type="curve" smooth="yes"/>
      <point x="40" y="920" type="line"/>
      <point x="40" y="881" type="line"/>
      <point x="108" y="830" type="line"/>
      <point x="108" y="90" type="line"/>
      <point x="40" y="39" type="line"/>
      <point x="40" y="0" type="line"/>
      <point x="278" y="0" type="line" smooth="yes"/>
      <point x="465" y="0"/>
      <point x="578" y="130"/>
      <point x="578" y="293" type="curve"/>
      <point x="578" y="468"/>
      <point x="466" y="554"/>
      <point x="389" y="571" type="curve"/>
      <point x="389" y="571"/>
      <point x="474" y="622"/>
    </contour>
    <contour>
      <point x="178" y="88" type="line"/>
      <point x="176" y="90" type="line"/>
      <point x="176" y="507" type="line"/>
      <point x="300" y="507" type="line" smooth="yes"/>
      <point x="403" y="507"/>
      <point x="515" y="429"/>
      <point x="515" y="291" type="curve" smooth="yes"/>
      <point x="515" y="153"/>
      <point x="401" y="88"/>
      <point x="287" y="88" type="curve" smooth="yes"/>
    </contour>
    <contour>
      <point x="176" y="842" type="line"/>
      <point x="274" y="842" type="line" smooth="yes"/>
      <point x="358" y="842"/>
      <point x="409" y="795"/>
      <point x="409" y="727" type="curve" smooth="yes"/>
      <point x="409" y="656"/>
      <point x="357" y="607"/>
      <point x="273" y="607" type="curve" smooth="yes"/>
      <point x="176" y="607" type="line"/>
    </contour>
  </outline>
</glyph>
<glyph name="C" format="1">
  <advance width="642"/>
  <unicode hex="0043"/>
  <outline>
    <contour>
      <point x="580" y="705" type="line"/>
      <point x="580" y="920" type="line"/>
      <point x="541" y="920" type="line"/>
      <point x="517" y="870" type="line"/>
      <point x="517" y="870"/>
      <point x="445" y="927"/>
      <point x="356" y="927" type="curve" smooth="yes"/>
      <point x="177" y="927"/>
      <point x="40" y="751"/>
      <point x="40" y="455" type="curve" smooth="yes"/>
      <point x="40" y="161"/>
      <point x="193" y="-14"/>
      <point x="366" y="-14" type="curve" smooth="yes"/>
      <point x="546" y="-14"/>
      <point x="643" y="189"/>
      <point x="618" y="293" type="curve"/>
      <point x="570" y="274" type="line"/>
      <point x="566" y="175"/>
      <point x="470" y="75"/>
      <point x="367" y="75" type="curve" smooth="yes"/>
      <point x="240" y="75"/>
      <point x="108" y="203"/>
      <point x="108" y="456" type="curve" smooth="yes"/>
      <point x="108" y="701"/>
      <point x="226" y="837"/>
      <point x="353" y="837" type="curve" smooth="yes"/>
      <point x="484" y="837"/>
      <point x="541" y="705"/>
      <point x="541" y="705" type="curve"/>
    </contour>
  </outline>
</glyph>
<glyph name="D" format="1">
  <advance width="681"/>
  <unicode hex="0044"/>
  <outline>
    <contour>
      <point x="279" y="0" type="line" smooth="yes"/>
      <point x="501" y="0"/>
      <point x="641" y="170"/>
      <point x="641" y="459" type="curve" smooth="yes"/>
      <point x="641" y="751"/>
      <point x="500" y="920"/>
      <point x="278" y="920" type="curve" smooth="yes"/>
      <point x="40" y="920" type="line"/>
      <point x="40" y="881" type="line"/>
      <point x="108" y="830" type="line"/>
      <point x="108" y="90" type="line"/>
      <point x="40" y="39" type="line"/>
      <point x="40" y="0" type="line"/>
    </contour>
    <contour>
      <point x="176" y="90" type="line"/>
      <point x="176" y="830" type="line"/>
      <point x="278" y="830" type="line"/>
      <point x="452" y="830"/>
      <point x="570" y="697"/>
      <point x="570" y="459" type="curve" smooth="yes"/>
      <point x="570" y="223"/>
      <point x="451" y="90"/>
      <point x="279" y="90" type="curve"/>
    </contour>
  </outline>
</glyph>
<glyph name="E" format="1">
  <advance width="533"/>
  <unicode hex="0045"/>
  <outline>
    <contour>
      <point x="483" y="0" type="move"/>
    </contour>
    <contour>
      <point x="468" y="139" type="line"/>
      <point x="438" y="89" type="line"/>
      <point x="178" y="88" type="line"/>
      <point x="176" y="90" type="line"/>
      <point x="176" y="400" type="line"/>
      <point x="377" y="400" type="line"/>
      <point x="407" y="492" type="line"/>
      <point x="176" y="492" type="line"/>
      <point x="176" y="832" type="line"/>
      <point x="407" y="832" type="line"/>
      <point x="436" y="781" type="line"/>
      <point x="475" y="781" type="line"/>
      <point x="452" y="920" type="line"/>
      <point x="40" y="920" type="line"/>
      <point x="40" y="881" type="line"/>
      <point x="108" y="830" type="line"/>
      <point x="108" y="90" type="line"/>
      <point x="40" y="39" type="line"/>
      <point x="40" y="0" type="line"/>
      <point x="483" y="0" type="line"/>
      <point x="506" y="139" type="line"/>
    </contour>
  </outline>
</glyph>
<glyph name="G" format="1">
  <advance width="702"/>
  <unicode hex="0047"/>
  <outline>
    <contour>
      <point x="575" y="705" type="line"/>
      <point x="575" y="920" type="line"/>
      <point x="536" y="920" type="line"/>
      <point x="512" y="870" type="line"/>
      <point x="512" y="870"/>
      <point x="440" y="927"/>
      <point x="351" y="927" type="curve" smooth="yes"/>
      <point x="172" y="927"/>
      <point x="35" y="751"/>
      <point x="35" y="455" type="curve" smooth="yes"/>
      <point x="35" y="161"/>
      <point x="198" y="-14"/>
      <point x="372" y="-14" type="curve" smooth="yes"/>
      <point x="590" y="-14"/>
      <point x="657" y="230"/>
      <point x="657" y="392" type="curve"/>
      <point x="657" y="492" type="line"/>
      <point x="452" y="492" type="line"/>
      <point x="421" y="400" type="line"/>
      <point x="589" y="400" type="line"/>
      <point x="589" y="246"/>
      <point x="526" y="75"/>
      <point x="373" y="75" type="curve" smooth="yes"/>
      <point x="247" y="75"/>
      <point x="103" y="203"/>
      <point x="103" y="456" type="curve" smooth="yes"/>
      <point x="103" y="701"/>
      <point x="221" y="837"/>
      <point x="348" y="837" type="curve"/>
      <point x="479" y="837"/>
      <point x="536" y="705"/>
      <point x="536" y="705" type="curve"/>
    </contour>
  </outline>
</glyph>
<glyph name="H" format="1">
  <advance width="702"/>
  <unicode hex="0048"/>
  <outline>
    <contour>
      <point x="596" y="830" type="line"/>
      <point x="662" y="881" type="line"/>
      <point x="662" y="920" type="line"/>
      <point x="460" y="920" type="line"/>
      <point x="460" y="881" type="line"/>
      <point x="460" y="881"/>
      <point x="529" y="830"/>
      <point x="528" y="830" type="curve"/>
      <point x="528" y="492" type="line"/>
      <point x="176" y="492" type="line"/>
      <point x="176" y="830" type="line"/>
      <point x="242" y="881" type="line"/>
      <point x="242" y="920" type="line"/>
      <point x="40" y="920" type="line"/>
      <point x="40" y="881" type="line"/>
      <point x="108" y="830" type="line"/>
      <point x="108" y="90" type="line"/>
      <point x="40" y="39" type="line"/>
      <point x="40" y="0" type="line"/>
      <point x="242" y="0" type="line"/>
      <point x="242" y="39" type="line"/>
      <point x="176" y="90" type="line"/>
      <point x="176" y="400" type="line"/>
      <point x="528" y="400" type="line"/>
      <point x="528" y="90" type="line"/>
      <point x="460" y="39" type="line"/>
      <point x="460" y="0" type="line"/>
      <point x="662" y="0" type="line"/>
      <point x="662" y="39" type="line"/>
      <point x="596" y="90" type="line"/>
    </contour>
  </outline>
</glyph>
<glyph name="I" format="1">
  <advance width="282"/>
  <unicode hex="0049"/>
  <outline>
    <contour>
      <point x="176" y="830" type="line"/>
      <point x="242" y="881" type="line"/>
      <point x="242" y="920" type="line"/>
      <point x="40" y="920" type="line"/>
      <point x="40" y="881" type="line"/>
      <point x="108" y="830" type="line"/>
      <point x="108" y="90" type="line"/>
      <point x="40" y="39" type="line"/>
      <point x="40" y="0" type="line"/>
      <point x="242" y="0" type="line"/>
      <point x="242" y="39" type="line"/>
      <point x="176" y="90" type="line"/>
    </contour>
  </outline>
</glyph>
<glyph name="J" format="1">
  <advance width="482"/>
  <unicode hex="004A"/>
  <outline>
    <contour>
      <point x="399" y="830" type="line"/>
      <point x="465" y="881" type="line"/>
      <point x="465" y="920" type="line"/>
      <point x="263" y="920" type="line"/>
      <point x="263" y="881" type="line"/>
      <point x="331" y="830" type="line"/>
      <point x="331" y="253" type="line"/>
      <point x="331" y="116"/>
      <point x="259" y="75"/>
      <point x="189" y="75" type="curve"/>
      <point x="102" y="75"/>
      <point x="44" y="164"/>
      <point x="51" y="274" type="curve"/>
      <point x="13" y="258" type="line"/>
      <point x="-10" y="196"/>
      <point x="9" y="-15"/>
      <point x="206" y="-15" type="curve"/>
      <point x="306" y="-15"/>
      <point x="399" y="72"/>
      <point x="399" y="231" type="curve"/>
    </contour>
  </outline>
</glyph>
<glyph name="K" format="1">
  <advance width="644"/>
  <unicode hex="004B"/>
  <outline>
    <contour>
      <point x="176" y="830" type="move"/>
    </contour>
    <contour>
      <point x="594" y="881" type="line"/>
      <point x="594" y="920" type="line"/>
      <point x="391" y="920" type="line"/>
      <point x="391" y="881" type="line"/>
      <point x="459" y="830" type="line"/>
      <point x="176" y="471" type="line"/>
      <point x="176" y="830" type="line"/>
      <point x="244" y="881" type="line"/>
      <point x="244" y="920" type="line"/>
      <point x="40" y="920" type="line"/>
      <point x="40" y="881" type="line"/>
      <point x="108" y="830" type="line"/>
      <point x="108" y="90" type="line"/>
      <point x="40" y="39" type="line"/>
      <point x="40" y="0" type="line"/>
      <point x="241" y="0" type="line"/>
      <point x="241" y="40" type="line"/>
      <point x="176" y="90" type="line"/>
      <point x="176" y="369" type="line"/>
      <point x="210" y="405" type="line"/>
      <point x="282" y="179" type="line" smooth="yes"/>
      <point x="320" y="58"/>
      <point x="359" y="-15"/>
      <point x="442" y="-15" type="curve" smooth="yes"/>
      <point x="547" y="-15"/>
      <point x="586" y="76"/>
      <point x="586" y="121" type="curve" smooth="yes"/>
      <point x="586" y="162"/>
      <point x="579" y="192"/>
      <point x="573" y="193" type="curve"/>
      <point x="535" y="177" type="line"/>
      <point x="548" y="131"/>
      <point x="503" y="76"/>
      <point x="458" y="76" type="curve" smooth="yes"/>
      <point x="406" y="76"/>
      <point x="389" y="113"/>
      <point x="350" y="221" type="curve" smooth="yes"/>
      <point x="261" y="468" type="line"/>
    </contour>
  </outline>
</glyph>
<glyph name="L" format="1">
  <advance width="506"/>
  <unicode hex="004C"/>
  <outline>
    <contour>
      <point x="468" y="139" type="line"/>
      <point x="438" y="91" type="line"/>
      <point x="176" y="91" type="line"/>
      <point x="176" y="830" type="line"/>
      <point x="242" y="881" type="line"/>
      <point x="242" y="920" type="line"/>
      <point x="40" y="920" type="line"/>
      <point x="40" y="881" type="line"/>
      <point x="108" y="830" type="line"/>
      <point x="108" y="90" type="line"/>
      <point x="40" y="39" type="line"/>
      <point x="40" y="0" type="line"/>
      <point x="483" y="0" type="line"/>
      <point x="506" y="139" type="line"/>
    </contour>
  </outline>
</glyph>
<glyph name="M" format="1">
  <advance width="932"/>
  <unicode hex="004D"/>
  <outline>
    <contour>
      <point x="431" y="-13" type="line"/>
      <point x="487" y="-13" type="line"/>
      <point x="770" y="705" type="line"/>
      <point x="770" y="83" type="line"/>
      <point x="710" y="39" type="line"/>
      <point x="710" y="0" type="line"/>
      <point x="912" y="0" type="line"/>
      <point x="912" y="39" type="line"/>
      <point x="854" y="84" type="line"/>
      <point x="854" y="920" type="line"/>
      <point x="780" y="920" type="line"/>
      <point x="469" y="113" type="line"/>
      <point x="157" y="920" type="line"/>
      <point x="82" y="920" type="line"/>
      <point x="81" y="86" type="line"/>
      <point x="20" y="39" type="line"/>
      <point x="20" y="0" type="line"/>
      <point x="208" y="0" type="line"/>
      <point x="208" y="39" type="line"/>
      <point x="149" y="86" type="line"/>
      <point x="149" y="714" type="line"/>
    </contour>
  </outline>
</glyph>
<glyph name="N" format="1">
  <advance width="692"/>
  <unicode hex="004E"/>
  <outline>
    <contour>
      <point x="596" y="830" type="line"/>
      <point x="662" y="881" type="line"/>
      <point x="662" y="920" type="line"/>
      <point x="460" y="920" type="line"/>
      <point x="460" y="881" type="line"/>
      <point x="460" y="881"/>
      <point x="529" y="830"/>
      <point x="528" y="830" type="curve"/>
      <point x="528" y="202" type="line"/>
      <point x="176" y="920" type="line"/>
      <point x="108" y="920" type="line"/>
      <point x="108" y="90" type="line"/>
      <point x="40" y="39" type="line"/>
      <point x="40" y="0" type="line"/>
      <point x="242" y="0" type="line"/>
      <point x="242" y="39" type="line"/>
      <point x="176" y="90" type="line"/>
      <point x="176" y="717" type="line"/>
      <point x="528" y="0" type="line"/>
      <point x="596" y="0" type="line"/>
    </contour>
  </outline>
</glyph>
<glyph name="O" format="1">
  <advance width="707"/>
  <unicode hex="004F"/>
  <outline>
    <contour>
      <point x="351" y="927" type="curve"/>
      <point x="179" y="927"/>
      <point x="40" y="751"/>
      <point x="40" y="458" type="curve" smooth="yes"/>
      <point x="40" y="159"/>
      <point x="179" y="-14"/>
      <point x="356" y="-14" type="curve" smooth="yes"/>
      <point x="530" y="-14"/>
      <point x="667" y="161"/>
      <point x="667" y="455" type="curve" smooth="yes"/>
      <point x="667" y="751"/>
      <point x="530" y="927"/>
    </contour>
    <contour>
      <point x="354" y="837" type="curve"/>
      <point x="481" y="837"/>
      <point x="598" y="701"/>
      <point x="598" y="456" type="curve" smooth="yes"/>
      <point x="598" y="203"/>
      <point x="481" y="75"/>
      <point x="355" y="75" type="curve" smooth="yes"/>
      <point x="230" y="75"/>
      <point x="109" y="201"/>
      <point x="109" y="458" type="curve" smooth="yes"/>
      <point x="109" y="701"/>
      <point x="230" y="837"/>
    </contour>
  </outline>
</glyph>
<glyph name="P" format="1">
  <advance width="586"/>
  <unicode hex="0050"/>
  <outline>
    <contour>
      <point x="576" y="660" type="curve" smooth="yes"/>
      <point x="576" y="788"/>
      <point x="496" y="920"/>
      <point x="319" y="920" type="curve" smooth="yes"/>
      <point x="30" y="920" type="line"/>
      <point x="30" y="881" type="line"/>
      <point x="98" y="830" type="line"/>
      <point x="98" y="90" type="line"/>
      <point x="30" y="39" type="line"/>
      <point x="30" y="0" type="line"/>
      <point x="231" y="0" type="line"/>
      <point x="231" y="40" type="line"/>
      <point x="166" y="90" type="line"/>
      <point x="166" y="400" type="line"/>
      <point x="319" y="400" type="line" smooth="yes"/>
      <point x="497" y="400"/>
      <point x="576" y="531"/>
    </contour>
    <contour>
      <point x="166" y="832" type="line"/>
      <point x="325" y="832" type="line" smooth="yes"/>
      <point x="465" y="832"/>
      <point x="511" y="731"/>
      <point x="511" y="659" type="curve" smooth="yes"/>
      <point x="511" y="591"/>
      <point x="465" y="487"/>
      <point x="325" y="487" type="curve" smooth="yes"/>
      <point x="166" y="487" type="line"/>
    </contour>
  </outline>
</glyph>
<glyph name="Q" format="1">
  <advance width="707"/>
  <unicode hex="0051"/>
  <outline>
    <contour>
      <point x="356" y="927" type="curve" smooth="yes"/>
      <point x="177" y="927"/>
      <point x="40" y="751"/>
      <point x="40" y="455" type="curve" smooth="yes"/>
      <point x="40" y="184"/>
      <point x="157" y="14"/>
      <point x="311" y="-11" type="curve"/>
      <point x="311" y="-11"/>
      <point x="312" y="-25"/>
      <point x="317" y="-54" type="curve" smooth="yes"/>
      <point x="325" y="-97"/>
      <point x="367" y="-190"/>
      <point x="459" y="-190" type="curve" smooth="yes"/>
      <point x="552" y="-190"/>
      <point x="591" y="-99"/>
      <point x="591" y="-43" type="curve"/>
      <point x="591" y="-17"/>
      <point x="584" y="1"/>
      <point x="584" y="1" type="curve"/>
      <point x="549" y="-14" type="line"/>
      <point x="549" y="-51"/>
      <point x="526" y="-107"/>
      <point x="459" y="-107" type="curve" smooth="yes"/>
      <point x="392" y="-107"/>
      <point x="385" y="-33"/>
      <point x="385" y="-12" type="curve"/>
      <point x="545" y="9"/>
      <point x="667" y="178"/>
      <point x="667" y="458" type="curve" smooth="yes"/>
      <point x="667" y="751"/>
      <point x="528" y="927"/>
    </contour>
    <contour>
      <point x="353" y="837" type="curve" smooth="yes"/>
      <point x="477" y="837"/>
      <point x="596" y="701"/>
      <point x="596" y="458" type="curve" smooth="yes"/>
      <point x="596" y="201"/>
      <point x="477" y="75"/>
      <point x="352" y="75" type="curve" smooth="yes"/>
      <point x="226" y="75"/>
      <point x="108" y="203"/>
      <point x="108" y="456" type="curve" smooth="yes"/>
      <point x="108" y="701"/>
      <point x="226" y="837"/>
    </contour>
  </outline>
</glyph>
<glyph name="R" format="1">
  <advance width="616"/>
  <unicode hex="0052"/>
  <outline>
    <contour>
      <point x="261" y="350" type="move" name="top"/>
    </contour>
    <contour>
      <point x="313" y="173" type="line" smooth="yes"/>
      <point x="349" y="58"/>
      <point x="391" y="-15"/>
      <point x="479" y="-15" type="curve" smooth="yes"/>
      <point x="569" y="-15"/>
      <point x="616" y="74"/>
      <point x="616" y="121" type="curve" smooth="yes"/>
      <point x="616" y="162"/>
      <point x="609" y="192"/>
      <point x="603" y="193" type="curve"/>
      <point x="565" y="177" type="line"/>
      <point x="578" y="131"/>
      <point x="532" y="75"/>
      <point x="489" y="75" type="curve" smooth="yes"/>
      <point x="431" y="75"/>
      <point x="411" y="133"/>
      <point x="382" y="215" type="curve" smooth="yes"/>
      <point x="316" y="400" type="line"/>
      <point x="338" y="400" type="line"/>
      <point x="510" y="403"/>
      <point x="586" y="532"/>
      <point x="586" y="660" type="curve" smooth="yes"/>
      <point x="586" y="788"/>
      <point x="506" y="920"/>
      <point x="329" y="920" type="curve" smooth="yes"/>
      <point x="40" y="920" type="line"/>
      <point x="40" y="881" type="line"/>
      <point x="108" y="830" type="line"/>
      <point x="108" y="90" type="line"/>
      <point x="40" y="39" type="line"/>
      <point x="40" y="0" type="line"/>
      <point x="241" y="0" type="line"/>
      <point x="241" y="40" type="line"/>
      <point x="176" y="90" type="line"/>
      <point x="176" y="400" type="line"/>
      <point x="242" y="400" type="line"/>
    </contour>
    <contour>
      <point x="176" y="832" type="line"/>
      <point x="335" y="832" type="line" smooth="yes"/>
      <point x="475" y="832"/>
      <point x="521" y="731"/>
      <point x="521" y="659" type="curve" smooth="yes"/>
      <point x="521" y="591"/>
      <point x="475" y="487"/>
      <point x="335" y="487" type="curve" smooth="yes"/>
      <point x="176" y="487" type="line"/>
    </contour>
  </outline>
</glyph>
<glyph name="S" format="1">
  <advance width="498"/>
  <unicode hex="0053"/>
  <outline>
    <contour>
      <point x="31" y="261" type="curve"/>
      <point x="31" y="261"/>
      <point x="69" y="277"/>
      <point x="69" y="277" type="curve"/>
      <point x="61" y="203"/>
      <point x="102" y="77"/>
      <point x="240" y="77" type="curve" smooth="yes"/>
      <point x="343" y="77"/>
      <point x="399" y="143"/>
      <point x="399" y="220" type="curve" smooth="yes"/>
      <point x="399" y="276"/>
      <point x="377" y="338"/>
      <point x="310" y="384" type="curve" smooth="yes"/>
      <point x="176" y="475" type="line" smooth="yes"/>
      <point x="67" y="549"/>
      <point x="38" y="616"/>
      <point x="38" y="707" type="curve" smooth="yes"/>
      <point x="38" y="816"/>
      <point x="120" y="927"/>
      <point x="216" y="927" type="curve" smooth="yes"/>
      <point x="312" y="927"/>
      <point x="350" y="871"/>
      <point x="350" y="871" type="curve"/>
      <point x="350" y="871"/>
      <point x="375" y="920"/>
      <point x="375" y="920" type="curve"/>
      <point x="375" y="920"/>
      <point x="413" y="920"/>
      <point x="413" y="920" type="curve"/>
      <point x="413" y="920"/>
      <point x="413" y="705"/>
      <point x="413" y="705" type="curve"/>
      <point x="413" y="705"/>
      <point x="374" y="705"/>
      <point x="374" y="705" type="curve"/>
      <point x="374" y="705"/>
      <point x="347" y="837"/>
      <point x="221" y="837" type="curve" smooth="yes"/>
      <point x="148" y="837"/>
      <point x="100" y="775"/>
      <point x="100" y="715" type="curve" smooth="yes"/>
      <point x="100" y="636"/>
      <point x="143" y="602"/>
      <point x="213" y="553" type="curve" smooth="yes"/>
      <point x="340" y="464" type="line" smooth="yes"/>
      <point x="417" y="410"/>
      <point x="468" y="331"/>
      <point x="468" y="225" type="curve" smooth="yes"/>
      <point x="468" y="98"/>
      <point x="392" y="-13"/>
      <point x="239" y="-13" type="curve" smooth="yes"/>
      <point x="107" y="-13"/>
      <point x="23" y="109"/>
      <point x="23" y="199" type="curve" smooth="yes"/>
      <point x="23" y="232"/>
      <point x="31" y="261"/>
    </contour>
  </outline>
</glyph>
<glyph name="T" format="1">
  <advance width="680"/>
  <unicode hex="0054"/>
  <outline>
    <contour>
      <point x="374" y="90" type="line"/>
      <point x="440" y="39" type="line"/>
      <point x="440" y="0" type="line"/>
      <point x="238" y="0" type="line"/>
      <point x="238" y="39" type="line"/>
      <point x="306" y="90" type="line"/>
      <point x="306" y="831" type="line"/>
      <point x="68" y="831" type="line"/>
      <point x="39" y="780" type="line"/>
      <point x="0" y="780" type="line"/>
      <point x="23" y="920" type="line"/>
      <point x="657" y="920" type="line"/>
      <point x="680" y="780" type="line"/>
      <point x="641" y="780" type="line"/>
      <point x="612" y="831" type="line"/>
      <point x="374" y="831" type="line"/>
    </contour>
  </outline>
</glyph>
<glyph name="U" format="1">
  <advance width="685"/>
  <unicode hex="0055"/>
  <outline>
    <contour>
      <point x="155" y="830" type="line"/>
      <point x="222" y="881" type="line"/>
      <point x="222" y="920" type="line"/>
      <point x="20" y="920" type="line"/>
      <point x="20" y="881" type="line"/>
      <point x="87" y="830" type="line"/>
      <point x="87" y="250" type="line" smooth="yes"/>
      <point x="87" y="96"/>
      <point x="185" y="-13"/>
      <point x="329" y="-13" type="curve"/>
      <point x="449" y="-13"/>
      <point x="504" y="70"/>
      <point x="504" y="70" type="curve"/>
      <point x="504" y="70"/>
      <point x="532" y="0"/>
      <point x="589" y="0" type="curve"/>
      <point x="654" y="0"/>
      <point x="685" y="77"/>
      <point x="685" y="136" type="curve"/>
      <point x="648" y="121" type="line"/>
      <point x="648" y="121"/>
      <point x="646" y="82"/>
      <point x="599" y="82" type="curve" smooth="yes"/>
      <point x="563" y="82"/>
      <point x="555" y="111"/>
      <point x="554" y="151" type="curve"/>
      <point x="554" y="255"/>
      <point x="555" y="315"/>
      <point x="555" y="433" type="curve" smooth="yes"/>
      <point x="555" y="830" type="line"/>
      <point x="622" y="881" type="line"/>
      <point x="622" y="920" type="line"/>
      <point x="420" y="920" type="line"/>
      <point x="420" y="881" type="line"/>
      <point x="420" y="881"/>
      <point x="488" y="830"/>
      <point x="487" y="830" type="curve"/>
      <point x="487" y="226" type="line" smooth="yes"/>
      <point x="487" y="135"/>
      <point x="415" y="75"/>
      <point x="329" y="75" type="curve" smooth="yes"/>
      <point x="254" y="75"/>
      <point x="155" y="129"/>
      <point x="155" y="257" type="curve" smooth="yes"/>
    </contour>
  </outline>
</glyph>
<glyph name="V" format="1">
  <advance width="621"/>
  <unicode hex="0056"/>
  <outline>
    <contour>
      <point x="142" y="844" type="line"/>
      <point x="202" y="888" type="line"/>
      <point x="202" y="927" type="line"/>
      <point x="0" y="927" type="line"/>
      <point x="0" y="888" type="line"/>
      <point x="58" y="843" type="line"/>
      <point x="281" y="0" type="line"/>
      <point x="348" y="0" type="line"/>
      <point x="551" y="837" type="line"/>
      <point x="621" y="888" type="line"/>
      <point x="621" y="927" type="line"/>
      <point x="419" y="927" type="line"/>
      <point x="419" y="888" type="line"/>
      <point x="485" y="838" type="line"/>
      <point x="318" y="125" type="line"/>
    </contour>
  </outline>
</glyph>
<glyph name="W" format="1">
  <advance width="892"/>
  <unicode hex="0057"/>
  <outline>
    <contour>
      <point x="481" y="811" type="line"/>
      <point x="425" y="811" type="line"/>
      <point x="295" y="209" type="line"/>
      <point x="142" y="837" type="line"/>
      <point x="202" y="881" type="line"/>
      <point x="202" y="920" type="line"/>
      <point x="0" y="920" type="line"/>
      <point x="0" y="881" type="line"/>
      <point x="58" y="836" type="line"/>
      <point x="261" y="0" type="line"/>
      <point x="319" y="0" type="line"/>
      <point x="441" y="606" type="line"/>
      <point x="594" y="0" type="line"/>
      <point x="653" y="0" type="line"/>
      <point x="828" y="833" type="line"/>
      <point x="892" y="881" type="line"/>
      <point x="892" y="920" type="line"/>
      <point x="704" y="920" type="line"/>
      <point x="704" y="881" type="line"/>
      <point x="765" y="835" type="line"/>
      <point x="629" y="206" type="line"/>
    </contour>
  </outline>
</glyph>
<glyph name="X" format="1">
  <advance width="663"/>
  <unicode hex="0058"/>
  <outline>
    <contour>
      <point x="500" y="83" type="line"/>
      <point x="440" y="39" type="line"/>
      <point x="440" y="0" type="line"/>
      <point x="643" y="0" type="line"/>
      <point x="643" y="39" type="line"/>
      <point x="588" y="82" type="line"/>
      <point x="367" y="456" type="line"/>
      <point x="584" y="836" type="line"/>
      <point x="643" y="881" type="line"/>
      <point x="643" y="920" type="line"/>
      <point x="440" y="920" type="line"/>
      <point x="440" y="881" type="line"/>
      <point x="502" y="836" type="line"/>
      <point x="331" y="521" type="line"/>
      <point x="165" y="836" type="line"/>
      <point x="223" y="881" type="line"/>
      <point x="223" y="920" type="line"/>
      <point x="20" y="920" type="line"/>
      <point x="20" y="881" type="line"/>
      <point x="80" y="836" type="line"/>
      <point x="293" y="460" type="line"/>
      <point x="80" y="84" type="line"/>
      <point x="21" y="39" type="line"/>
      <point x="21" y="0" type="line"/>
      <point x="223" y="0" type="line"/>
      <point x="223" y="39" type="line"/>
      <point x="164" y="83" type="line"/>
      <point x="330" y="398" type="line"/>
    </contour>
  </outline>
</glyph>
<glyph name="Y" format="1">
  <advance width="623"/>
  <unicode hex="0059"/>
  <outline>
    <contour>
      <point x="346" y="368" type="line"/>
      <point x="564" y="836" type="line"/>
      <point x="623" y="881" type="line"/>
      <point x="623" y="920" type="line"/>
      <point x="420" y="920" type="line"/>
      <point x="420" y="881" type="line"/>
      <point x="482" y="836" type="line"/>
      <point x="313" y="451" type="line"/>
      <point x="145" y="836" type="line"/>
      <point x="203" y="881" type="line"/>
      <point x="203" y="920" type="line"/>
      <point x="0" y="920" type="line"/>
      <point x="0" y="881" type="line"/>
      <point x="60" y="836" type="line"/>
      <point x="278" y="368" type="line"/>
      <point x="278" y="90" type="line"/>
      <point x="210" y="39" type="line"/>
      <point x="210" y="0" type="line"/>
      <point x="412" y="0" type="line"/>
      <point x="412" y="39" type="line"/>
      <point x="346" y="90" type="line"/>
    </contour>
  </outline>
</glyph>
<glyph name="Z" format="1">
  <advance width="578"/>
  <unicode hex="005A"/>
  <outline>
    <contour>
      <point x="30" y="40" type="line"/>
      <point x="446" y="840" type="line"/>
      <point x="137" y="840" type="line"/>
      <point x="108" y="781" type="line"/>
      <point x="70" y="781" type="line"/>
      <point x="70" y="920" type="line"/>
      <point x="548" y="920" type="line"/>
      <point x="548" y="881" type="line"/>
      <point x="129" y="91" type="line"/>
      <point x="195" y="111" type="line" smooth="yes"/>
      <point x="245" y="126"/>
      <point x="377" y="67"/>
      <point x="448" y="67" type="curve" smooth="yes"/>
      <point x="516" y="67"/>
      <point x="511" y="108"/>
      <point x="511" y="108" type="curve"/>
      <point x="549" y="123" type="line"/>
      <point x="549" y="87"/>
      <point x="535" y="37"/>
      <point x="513" y="15" type="curve" smooth="yes"/>
      <point x="489" y="-9"/>
      <point x="474" y="-15"/>
      <point x="432" y="-13" type="curve"/>
      <point x="368" y="-13"/>
      <point x="215" y="43"/>
      <point x="177" y="32" type="curve" smooth="yes"/>
      <point x="70" y="0" type="line"/>
    </contour>
  </outline>
</glyph>
<glyph name="grave" format="1">
  <advance width="833"/>
  <unicode hex="0060"/>
  <outline>
    <contour>
      <point x="594" y="624" type="line"/>
      <point x="433" y="691"/>
      <point x="422" y="812"/>
      <point x="422" y="812" type="curve"/>
      <point x="422" y="812"/>
      <point x="384" y="812"/>
      <point x="384" y="812" type="curve" smooth="yes"/>
      <point x="303" y="812"/>
      <point x="331" y="660"/>
      <point x="568" y="583" type="curve"/>
    </contour>
  </outline>
</glyph>
<glyph name="a" format="1">
  <advance width="501"/>
  <unicode hex="0061"/>
  <outline>
    <contour>
      <point x="108" y="324" type="line"/>
      <point x="108" y="358"/>
      <point x="129" y="409"/>
      <point x="203" y="409" type="curve" smooth="yes"/>
      <point x="255" y="409"/>
      <point x="303" y="372"/>
      <point x="303" y="320" type="curve"/>
      <point x="302" y="283" type="line"/>
      <point x="292" y="273" type="line"/>
      <point x="169" y="273" type="line"/>
      <point x="112" y="273"/>
      <point x="40" y="212"/>
      <point x="40" y="125" type="curve" smooth="yes"/>
      <point x="40" y="36"/>
      <point x="126" y="-13"/>
      <point x="175" y="-13" type="curve" smooth="yes"/>
      <point x="280" y="-13"/>
      <point x="319" y="66"/>
      <point x="319" y="66" type="curve"/>
      <point x="319" y="66"/>
      <point x="347" y="0"/>
      <point x="406" y="0" type="curve" smooth="yes"/>
      <point x="461" y="0"/>
      <point x="501" y="68"/>
      <point x="501" y="137" type="curve"/>
      <point x="463" y="121" type="line"/>
      <point x="463" y="121"/>
      <point x="460" y="81"/>
      <point x="414" y="81" type="curve" smooth="yes"/>
      <point x="380" y="81"/>
      <point x="370" y="110"/>
      <point x="370" y="180" type="curve"/>
      <point x="370" y="180"/>
      <point x="370" y="353"/>
      <point x="370" y="353" type="curve"/>
      <point x="370" y="416"/>
      <point x="327" y="500"/>
      <point x="206" y="500" type="curve" smooth="yes"/>
      <point x="122" y="500"/>
      <point x="60" y="426"/>
      <point x="60" y="358" type="curve"/>
      <point x="60" y="318"/>
      <point x="66" y="306"/>
      <point x="66" y="306" type="curve"/>
    </contour>
    <contour>
      <point x="296" y="156" type="line"/>
      <point x="296" y="128"/>
      <point x="276" y="75"/>
      <point x="182" y="75" type="curve" smooth="yes"/>
      <point x="140" y="75"/>
      <point x="112" y="98"/>
      <point x="112" y="124" type="curve" smooth="yes"/>
      <point x="112" y="155"/>
      <point x="130" y="185"/>
      <point x="187" y="195" type="curve" smooth="yes"/>
      <point x="296" y="215" type="line"/>
    </contour>
  </outline>
</glyph>
<glyph name="b" format="1">
  <advance width="590"/>
  <unicode hex="0062"/>
  <outline>
    <contour>
      <point x="-31" y="920" type="line"/>
      <point x="-31" y="829" type="line"/>
      <point x="-31" y="829"/>
      <point x="96" y="829"/>
      <point x="96" y="829" type="curve"/>
      <point x="96" y="829"/>
      <point x="96" y="121"/>
      <point x="96" y="121" type="curve"/>
      <point x="61" y="0" type="line"/>
      <point x="61" y="0"/>
      <point x="109" y="0"/>
      <point x="109" y="0" type="curve"/>
      <point x="109" y="0"/>
      <point x="164" y="62"/>
      <point x="164" y="62" type="curve"/>
      <point x="164" y="62"/>
      <point x="221" y="-14"/>
      <point x="323" y="-14" type="curve" smooth="yes"/>
      <point x="448" y="-14"/>
      <point x="563" y="83"/>
      <point x="563" y="245" type="curve" smooth="yes"/>
      <point x="563" y="383"/>
      <point x="460" y="498"/>
      <point x="321" y="498" type="curve" smooth="yes"/>
      <point x="237" y="498"/>
      <point x="174" y="433"/>
      <point x="174" y="433" type="curve"/>
      <point x="174" y="433"/>
      <point x="165" y="441"/>
      <point x="165" y="441" type="curve"/>
      <point x="165" y="441"/>
      <point x="165" y="920"/>
      <point x="165" y="920" type="curve"/>
    </contour>
    <contour>
      <point x="320" y="408" type="curve" smooth="yes"/>
      <point x="443" y="408"/>
      <point x="492" y="307"/>
      <point x="492" y="245" type="curve" smooth="yes"/>
      <point x="492" y="162"/>
      <point x="429" y="75"/>
      <point x="324" y="75" type="curve" smooth="yes"/>
      <point x="234" y="75"/>
      <point x="162" y="141"/>
      <point x="162" y="244" type="curve" smooth="yes"/>
      <point x="162" y="328"/>
      <point x="227" y="408"/>
    </contour>
  </outline>
</glyph>
<glyph name="c" format="1">
  <advance width="532"/>
  <unicode hex="0063"/>
  <outline>
    <contour>
      <point x="29" y="239" type="curve" smooth="yes"/>
      <point x="29" y="391"/>
      <point x="141" y="498"/>
      <point x="279" y="498" type="curve" smooth="yes"/>
      <point x="356" y="498"/>
      <point x="390" y="454"/>
      <point x="390" y="454" type="curve"/>
      <point x="390" y="454"/>
      <point x="415" y="492"/>
      <point x="415" y="492" type="curve"/>
      <point x="415" y="492"/>
      <point x="454" y="492"/>
      <point x="454" y="492" type="curve"/>
      <point x="454" y="492"/>
      <point x="454" y="291"/>
      <point x="454" y="291" type="curve"/>
      <point x="454" y="291"/>
      <point x="415" y="291"/>
      <point x="415" y="291" type="curve"/>
      <point x="415" y="291"/>
      <point x="400" y="408"/>
      <point x="276" y="408" type="curve" smooth="yes"/>
      <point x="167" y="408"/>
      <point x="97" y="346"/>
      <point x="97" y="240" type="curve" smooth="yes"/>
      <point x="97" y="144"/>
      <point x="166" y="75"/>
      <point x="275" y="75" type="curve" smooth="yes"/>
      <point x="366" y="75"/>
      <point x="439" y="136"/>
      <point x="439" y="193" type="curve"/>
      <point x="439" y="193"/>
      <point x="477" y="208"/>
      <point x="477" y="208" type="curve"/>
      <point x="477" y="208"/>
      <point x="481" y="205"/>
      <point x="481" y="178" type="curve" smooth="yes"/>
      <point x="481" y="90"/>
      <point x="408" y="-14"/>
      <point x="273" y="-14" type="curve" smooth="yes"/>
      <point x="147" y="-14"/>
      <point x="29" y="91"/>
    </contour>
  </outline>
</glyph>
<glyph name="d" format="1">
  <advance width="643"/>
  <unicode hex="0064"/>
  <outline>
    <contour>
      <point x="271" y="498" type="curve"/>
      <point x="166" y="498"/>
      <point x="34" y="412"/>
      <point x="34" y="242" type="curve" smooth="yes"/>
      <point x="34" y="84"/>
      <point x="148" y="-14"/>
      <point x="277" y="-14" type="curve" smooth="yes"/>
      <point x="385" y="-14"/>
      <point x="450" y="69"/>
      <point x="450" y="69" type="curve"/>
      <point x="450" y="69"/>
      <point x="482" y="0"/>
      <point x="535" y="0" type="curve"/>
      <point x="600" y="0"/>
      <point x="631" y="77"/>
      <point x="631" y="136" type="curve"/>
      <point x="631" y="136"/>
      <point x="594" y="121"/>
      <point x="594" y="121" type="curve"/>
      <point x="594" y="121"/>
      <point x="592" y="82"/>
      <point x="545" y="82" type="curve" smooth="yes"/>
      <point x="501" y="82"/>
      <point x="501" y="134"/>
      <point x="501" y="177" type="curve"/>
      <point x="501" y="177"/>
      <point x="501" y="911"/>
      <point x="501" y="911" type="curve"/>
      <point x="501" y="911"/>
      <point x="490" y="919"/>
      <point x="490" y="919" type="curve"/>
      <point x="490" y="919"/>
      <point x="301" y="919"/>
      <point x="301" y="919" type="curve"/>
      <point x="301" y="919"/>
      <point x="301" y="829"/>
      <point x="301" y="829" type="curve"/>
      <point x="301" y="829"/>
      <point x="432" y="829"/>
      <point x="432" y="829" type="curve"/>
      <point x="432" y="829"/>
      <point x="432" y="442"/>
      <point x="432" y="442" type="curve"/>
      <point x="432" y="442"/>
      <point x="423" y="434"/>
      <point x="423" y="434" type="curve"/>
      <point x="423" y="434"/>
      <point x="364" y="498"/>
    </contour>
    <contour>
      <point x="268" y="408" type="curve" smooth="yes"/>
      <point x="375" y="408"/>
      <point x="435" y="335"/>
      <point x="435" y="239" type="curve" smooth="yes"/>
      <point x="435" y="138"/>
      <point x="361" y="75"/>
      <point x="276" y="75" type="curve" smooth="yes"/>
      <point x="189" y="75"/>
      <point x="105" y="138"/>
      <point x="105" y="242" type="curve" smooth="yes"/>
      <point x="105" y="341"/>
      <point x="187" y="408"/>
    </contour>
  </outline>
</glyph>
<glyph name="e" format="1">
  <advance width="532"/>
  <unicode hex="0065"/>
  <outline>
    <contour>
      <point x="40" y="239" type="curve" smooth="yes"/>
      <point x="40" y="87"/>
      <point x="159" y="-14"/>
      <point x="280" y="-14" type="curve" smooth="yes"/>
      <point x="414" y="-14"/>
      <point x="492" y="90"/>
      <point x="492" y="178" type="curve" smooth="yes"/>
      <point x="492" y="218"/>
      <point x="488" y="208"/>
      <point x="488" y="208" type="curve"/>
      <point x="488" y="208"/>
      <point x="450" y="193"/>
      <point x="450" y="193" type="curve" smooth="yes"/>
      <point x="450" y="139"/>
      <point x="386" y="75"/>
      <point x="280" y="75" type="curve" smooth="yes"/>
      <point x="206" y="75"/>
      <point x="100" y="123"/>
      <point x="108" y="251" type="curve"/>
      <point x="467" y="251" type="line"/>
      <point x="467" y="251"/>
      <point x="476" y="279"/>
      <point x="476" y="315" type="curve"/>
      <point x="476" y="444"/>
      <point x="363" y="498"/>
      <point x="282" y="498" type="curve" smooth="yes"/>
      <point x="160" y="498"/>
      <point x="40" y="396"/>
    </contour>
    <contour>
      <point x="273" y="408" type="curve" smooth="yes"/>
      <point x="369" y="408"/>
      <point x="408" y="347"/>
      <point x="408" y="330" type="curve"/>
      <point x="121" y="314" type="line"/>
      <point x="149" y="380"/>
      <point x="221" y="408"/>
    </contour>
  </outline>
</glyph>
<glyph name="f" format="1">
  <advance width="375"/>
  <unicode hex="0066"/>
  <outline>
    <contour>
      <point x="182" y="90" type="line"/>
      <point x="182" y="90"/>
      <point x="248" y="39"/>
      <point x="248" y="39" type="curve"/>
      <point x="248" y="39"/>
      <point x="248" y="0"/>
      <point x="248" y="0" type="curve"/>
      <point x="248" y="0"/>
      <point x="45" y="0"/>
      <point x="45" y="0" type="curve"/>
      <point x="45" y="0"/>
      <point x="45" y="39"/>
      <point x="45" y="39" type="curve"/>
      <point x="45" y="39"/>
      <point x="113" y="90"/>
      <point x="113" y="90" type="curve"/>
      <point x="113" y="90"/>
      <point x="113" y="246"/>
      <point x="113" y="400" type="curve"/>
      <point x="45" y="400" type="line"/>
      <point x="76" y="492" type="line"/>
      <point x="113" y="492" type="line"/>
      <point x="113" y="614"/>
      <point x="113" y="757"/>
      <point x="113" y="757" type="curve"/>
      <point x="113" y="833"/>
      <point x="160" y="920"/>
      <point x="262" y="920" type="curve"/>
      <point x="345" y="920"/>
      <point x="393" y="837"/>
      <point x="393" y="761" type="curve"/>
      <point x="393" y="721"/>
      <point x="389" y="698"/>
      <point x="389" y="698" type="curve"/>
      <point x="351" y="713" type="line"/>
      <point x="351" y="713"/>
      <point x="349" y="832"/>
      <point x="259" y="832" type="curve"/>
      <point x="225" y="832"/>
      <point x="182" y="818"/>
      <point x="182" y="723" type="curve"/>
      <point x="182" y="492" type="line"/>
      <point x="342" y="492" type="line"/>
      <point x="312" y="400" type="line"/>
      <point x="182" y="400" type="line"/>
    </contour>
  </outline>
</glyph>
<glyph name="g" format="1">
  <advance width="492"/>
  <unicode hex="0067"/>
  <outline>
    <contour>
      <point x="54" y="301" type="curve" smooth="yes"/>
      <point x="54" y="261"/>
      <point x="64" y="224"/>
      <point x="82" y="193" type="curve"/>
      <point x="59" y="173"/>
      <point x="27" y="135"/>
      <point x="27" y="92" type="curve" smooth="yes"/>
      <point x="27" y="39"/>
      <point x="59" y="-3"/>
      <point x="96" y="-20" type="curve"/>
      <point x="96" y="-20"/>
      <point x="29" y="-69"/>
      <point x="29" y="-173" type="curve"/>
      <point x="29" y="-299"/>
      <point x="129" y="-408"/>
      <point x="251" y="-408" type="curve" smooth="yes"/>
      <point x="381" y="-408"/>
      <point x="479" y="-299"/>
      <point x="479" y="-173" type="curve" smooth="yes"/>
      <point x="479" y="-40"/>
      <point x="380" y="69"/>
      <point x="263" y="69" type="curve" smooth="yes"/>
      <point x="203" y="69"/>
      <point x="181" y="57"/>
      <point x="144" y="58" type="curve" smooth="yes"/>
      <point x="109" y="59"/>
      <point x="95" y="79"/>
      <point x="95" y="105" type="curve" smooth="yes"/>
      <point x="95" y="129"/>
      <point x="105" y="142"/>
      <point x="118" y="150" type="curve"/>
      <point x="150" y="121"/>
      <point x="192" y="104"/>
      <point x="241" y="104" type="curve" smooth="yes"/>
      <point x="350" y="104"/>
      <point x="426" y="192"/>
      <point x="426" y="301" type="curve" smooth="yes"/>
      <point x="426" y="330"/>
      <point x="420" y="359"/>
      <point x="410" y="384" type="curve"/>
      <point x="442" y="401"/>
      <point x="457" y="446"/>
      <point x="457" y="498" type="curve"/>
      <point x="420" y="483" type="line"/>
      <point x="420" y="483"/>
      <point x="406" y="447"/>
      <point x="378" y="435" type="curve"/>
      <point x="345" y="474"/>
      <point x="298" y="498"/>
      <point x="241" y="498" type="curve" smooth="yes"/>
      <point x="132" y="498"/>
      <point x="54" y="410"/>
    </contour>
    <contour>
      <point x="256" y="-21" type="line" smooth="yes"/>
      <point x="341" y="-15"/>
      <point x="414" y="-80"/>
      <point x="414" y="-172" type="curve" smooth="yes"/>
      <point x="414" y="-255"/>
      <point x="333" y="-319"/>
      <point x="255" y="-319" type="curve" smooth="yes"/>
      <point x="170" y="-319"/>
      <point x="94" y="-255"/>
      <point x="94" y="-172" type="curve"/>
      <point x="94" y="-72"/>
      <point x="157" y="-28"/>
      <point x="157" y="-28" type="curve"/>
    </contour>
    <contour>
      <point x="122" y="301" type="curve" smooth="yes"/>
      <point x="122" y="362"/>
      <point x="180" y="410"/>
      <point x="241" y="410" type="curve" smooth="yes"/>
      <point x="302" y="410"/>
      <point x="359" y="362"/>
      <point x="359" y="301" type="curve" smooth="yes"/>
      <point x="359" y="240"/>
      <point x="302" y="196"/>
      <point x="241" y="196" type="curve" smooth="yes"/>
      <point x="180" y="196"/>
      <point x="122" y="240"/>
    </contour>
    <contour>
      <point x="184" y="48" type="line"/>
      <point x="183" y="49" type="line"/>
    </contour>
  </outline>
</glyph>
<glyph name="h" format="1">
  <advance width="608"/>
  <unicode hex="0068"/>
  <outline>
    <contour>
      <point x="0" y="829" type="line"/>
      <point x="132" y="829" type="line"/>
      <point x="132" y="829"/>
      <point x="133" y="90"/>
      <point x="133" y="90" type="curve"/>
      <point x="133" y="90"/>
      <point x="65" y="39"/>
      <point x="65" y="39" type="curve"/>
      <point x="65" y="39"/>
      <point x="65" y="0"/>
      <point x="65" y="0" type="curve"/>
      <point x="65" y="0"/>
      <point x="267" y="0"/>
      <point x="267" y="0" type="curve"/>
      <point x="267" y="0"/>
      <point x="267" y="39"/>
      <point x="267" y="39" type="curve"/>
      <point x="267" y="39"/>
      <point x="201" y="90"/>
      <point x="201" y="90" type="curve"/>
      <point x="201" y="90"/>
      <point x="201" y="253"/>
      <point x="201" y="253" type="curve"/>
      <point x="201" y="360"/>
      <point x="268" y="405"/>
      <point x="327" y="405" type="curve" smooth="yes"/>
      <point x="384" y="405"/>
      <point x="442" y="372"/>
      <point x="442" y="295" type="curve" smooth="yes"/>
      <point x="442" y="295"/>
      <point x="442" y="90"/>
      <point x="442" y="90" type="curve"/>
      <point x="442" y="90"/>
      <point x="374" y="39"/>
      <point x="374" y="39" type="curve"/>
      <point x="374" y="39"/>
      <point x="374" y="0"/>
      <point x="374" y="0" type="curve"/>
      <point x="374" y="0"/>
      <point x="575" y="0"/>
      <point x="575" y="0" type="curve"/>
      <point x="575" y="0"/>
      <point x="575" y="39"/>
      <point x="575" y="39" type="curve"/>
      <point x="575" y="39"/>
      <point x="509" y="90"/>
      <point x="509" y="90" type="curve"/>
      <point x="509" y="90"/>
      <point x="509" y="308"/>
      <point x="509" y="308" type="curve"/>
      <point x="509" y="412"/>
      <point x="436" y="498"/>
      <point x="321" y="498" type="curve" smooth="yes"/>
      <point x="244" y="498"/>
      <point x="200" y="419"/>
      <point x="200" y="419" type="curve"/>
      <point x="200" y="911" type="line"/>
      <point x="190" y="920" type="line"/>
      <point x="190" y="920"/>
      <point x="0" y="920"/>
      <point x="0" y="920" type="curve"/>
    </contour>
  </outline>
</glyph>
<glyph name="i" format="1">
  <advance width="260"/>
  <unicode hex="0069"/>
  <outline>
    <contour>
      <point x="174" y="90" type="line"/>
      <point x="174" y="90"/>
      <point x="240" y="39"/>
      <point x="240" y="39" type="curve"/>
      <point x="240" y="39"/>
      <point x="240" y="0"/>
      <point x="240" y="0" type="curve"/>
      <point x="240" y="0"/>
      <point x="39" y="0"/>
      <point x="39" y="0" type="curve"/>
      <point x="39" y="0"/>
      <point x="39" y="39"/>
      <point x="39" y="39" type="curve"/>
      <point x="39" y="39"/>
      <point x="107" y="90"/>
      <point x="107" y="90" type="curve"/>
      <point x="107" y="90"/>
      <point x="107" y="402"/>
      <point x="107" y="402" type="curve"/>
      <point x="107" y="402"/>
      <point x="20" y="402"/>
      <point x="20" y="402" type="curve"/>
      <point x="20" y="402"/>
      <point x="20" y="492"/>
      <point x="20" y="492" type="curve"/>
      <point x="20" y="492"/>
      <point x="166" y="492"/>
      <point x="166" y="492" type="curve"/>
      <point x="174" y="482" type="line"/>
    </contour>
    <contour>
      <point x="82" y="648" type="curve" smooth="yes"/>
      <point x="82" y="623"/>
      <point x="103" y="596"/>
      <point x="128" y="596" type="curve" smooth="yes"/>
      <point x="153" y="596"/>
      <point x="174" y="623"/>
      <point x="174" y="648" type="curve" smooth="yes"/>
      <point x="174" y="673"/>
      <point x="153" y="700"/>
      <point x="128" y="700" type="curve" smooth="yes"/>
      <point x="103" y="700"/>
      <point x="82" y="673"/>
    </contour>
  </outline>
</glyph>
<glyph name="j" format="1">
  <advance width="233"/>
  <unicode hex="006A"/>
  <outline>
    <contour>
      <point x="193" y="-80" type="line"/>
      <point x="193" y="-158"/>
      <point x="156" y="-250"/>
      <point x="51" y="-250" type="curve"/>
      <point x="-40" y="-250"/>
      <point x="-85" y="-163"/>
      <point x="-85" y="-95" type="curve"/>
      <point x="-85" y="-45"/>
      <point x="-83" y="-43"/>
      <point x="-83" y="-43" type="curve"/>
      <point x="-83" y="-43"/>
      <point x="-45" y="-28"/>
      <point x="-45" y="-28" type="curve"/>
      <point x="-45" y="-28"/>
      <point x="-47" y="-162"/>
      <point x="50" y="-162" type="curve" smooth="yes"/>
      <point x="126" y="-162"/>
      <point x="126" y="-83"/>
      <point x="126" y="-58" type="curve"/>
      <point x="126" y="-58"/>
      <point x="126" y="402"/>
      <point x="126" y="402" type="curve"/>
      <point x="126" y="402"/>
      <point x="39" y="402"/>
      <point x="39" y="402" type="curve"/>
      <point x="39" y="402"/>
      <point x="39" y="492"/>
      <point x="39" y="492" type="curve"/>
      <point x="39" y="492"/>
      <point x="185" y="492"/>
      <point x="185" y="492" type="curve"/>
      <point x="193" y="482" type="line"/>
    </contour>
    <contour>
      <point x="101" y="648" type="curve" smooth="yes"/>
      <point x="101" y="623"/>
      <point x="122" y="596"/>
      <point x="147" y="596" type="curve" smooth="yes"/>
      <point x="172" y="596"/>
      <point x="193" y="623"/>
      <point x="193" y="648" type="curve" smooth="yes"/>
      <point x="193" y="673"/>
      <point x="172" y="700"/>
      <point x="147" y="700" type="curve" smooth="yes"/>
      <point x="122" y="700"/>
      <point x="101" y="673"/>
    </contour>
  </outline>
</glyph>
<glyph name="k" format="1">
  <advance width="526"/>
  <unicode hex="006B"/>
  <outline>
    <contour>
      <point x="511" y="193" type="line"/>
      <point x="515" y="195"/>
      <point x="526" y="157"/>
      <point x="526" y="124" type="curve" smooth="yes"/>
      <point x="526" y="66"/>
      <point x="473" y="-14"/>
      <point x="388" y="-14" type="curve" smooth="yes"/>
      <point x="308" y="-14"/>
      <point x="268" y="41"/>
      <point x="245" y="77" type="curve" smooth="yes"/>
      <point x="159" y="213" type="line"/>
      <point x="160" y="213" type="line"/>
      <point x="160" y="90" type="line"/>
      <point x="226" y="39" type="line"/>
      <point x="226" y="0" type="line"/>
      <point x="23" y="0" type="line"/>
      <point x="23" y="39" type="line"/>
      <point x="91" y="90" type="line"/>
      <point x="91" y="829" type="line"/>
      <point x="-40" y="829" type="line"/>
      <point x="-40" y="920" type="line"/>
      <point x="150" y="920" type="line"/>
      <point x="160" y="911" type="line"/>
      <point x="160" y="315" type="line"/>
      <point x="281" y="416" type="line"/>
      <point x="235" y="453" type="line"/>
      <point x="235" y="492" type="line"/>
      <point x="436" y="492" type="line"/>
      <point x="436" y="453" type="line"/>
      <point x="200" y="254" type="line"/>
      <point x="278" y="146" type="line" smooth="yes"/>
      <point x="304" y="110"/>
      <point x="341" y="72"/>
      <point x="383" y="72" type="curve" smooth="yes"/>
      <point x="442" y="72"/>
      <point x="488" y="134"/>
      <point x="473" y="177" type="curve"/>
    </contour>
  </outline>
</glyph>
<glyph name="l" format="1">
  <advance width="266"/>
  <unicode hex="006C"/>
  <outline>
    <contour>
      <point x="180" y="90" type="line"/>
      <point x="180" y="90"/>
      <point x="246" y="39"/>
      <point x="246" y="39" type="curve"/>
      <point x="246" y="39"/>
      <point x="246" y="0"/>
      <point x="246" y="0" type="curve"/>
      <point x="246" y="0"/>
      <point x="43" y="0"/>
      <point x="43" y="0" type="curve"/>
      <point x="43" y="0"/>
      <point x="43" y="39"/>
      <point x="43" y="39" type="curve"/>
      <point x="43" y="39"/>
      <point x="111" y="90"/>
      <point x="111" y="90" type="curve"/>
      <point x="111" y="90"/>
      <point x="111" y="830"/>
      <point x="111" y="830" type="curve"/>
      <point x="111" y="830"/>
      <point x="-20" y="830"/>
      <point x="-20" y="830" type="curve"/>
      <point x="-20" y="830"/>
      <point x="-20" y="920"/>
      <point x="-20" y="920" type="curve"/>
      <point x="-20" y="920"/>
      <point x="170" y="920"/>
      <point x="170" y="920" type="curve"/>
      <point x="180" y="911" type="line"/>
    </contour>
  </outline>
</glyph>
<glyph name="m" format="1">
  <advance width="886"/>
  <unicode hex="006D"/>
  <outline>
    <contour>
      <point x="31" y="402" type="line"/>
      <point x="118" y="402" type="line"/>
      <point x="118" y="90" type="line"/>
      <point x="50" y="39" type="line"/>
      <point x="50" y="0" type="line"/>
      <point x="251" y="0" type="line"/>
      <point x="251" y="39" type="line"/>
      <point x="185" y="90" type="line"/>
      <point x="185" y="253" type="line" smooth="yes"/>
      <point x="185" y="360"/>
      <point x="252" y="405"/>
      <point x="311" y="405" type="curve" smooth="yes"/>
      <point x="368" y="405"/>
      <point x="426" y="372"/>
      <point x="426" y="295" type="curve" smooth="yes"/>
      <point x="426" y="90" type="line"/>
      <point x="358" y="39" type="line"/>
      <point x="358" y="0" type="line"/>
      <point x="559" y="0" type="line"/>
      <point x="559" y="39" type="line"/>
      <point x="493" y="90" type="line"/>
      <point x="493" y="283" type="line"/>
      <point x="496" y="383"/>
      <point x="561" y="405"/>
      <point x="619" y="405" type="curve" smooth="yes"/>
      <point x="676" y="405"/>
      <point x="734" y="372"/>
      <point x="734" y="295" type="curve" smooth="yes"/>
      <point x="734" y="90" type="line"/>
      <point x="666" y="39" type="line"/>
      <point x="666" y="0" type="line"/>
      <point x="867" y="0" type="line"/>
      <point x="867" y="39" type="line"/>
      <point x="801" y="90" type="line"/>
      <point x="801" y="308" type="line" smooth="yes"/>
      <point x="801" y="412"/>
      <point x="728" y="498"/>
      <point x="613" y="498" type="curve" smooth="yes"/>
      <point x="516" y="498"/>
      <point x="462" y="422"/>
      <point x="460" y="419" type="curve"/>
      <point x="428" y="467"/>
      <point x="374" y="498"/>
      <point x="305" y="498" type="curve" smooth="yes"/>
      <point x="215" y="498"/>
      <point x="173" y="419"/>
      <point x="173" y="419" type="curve"/>
      <point x="164" y="482" type="line"/>
      <point x="156" y="492" type="line"/>
      <point x="31" y="492" type="line"/>
    </contour>
  </outline>
</glyph>
<glyph name="n" format="1">
  <advance width="588"/>
  <unicode hex="006E"/>
  <outline>
    <contour>
      <point x="40" y="402" type="line"/>
      <point x="127" y="402" type="line"/>
      <point x="127" y="402"/>
      <point x="127" y="90"/>
      <point x="127" y="90" type="curve"/>
      <point x="127" y="90"/>
      <point x="59" y="39"/>
      <point x="59" y="39" type="curve"/>
      <point x="59" y="39"/>
      <point x="59" y="0"/>
      <point x="59" y="0" type="curve"/>
      <point x="59" y="0"/>
      <point x="260" y="0"/>
      <point x="260" y="0" type="curve"/>
      <point x="260" y="0"/>
      <point x="260" y="39"/>
      <point x="260" y="39" type="curve"/>
      <point x="260" y="39"/>
      <point x="194" y="90"/>
      <point x="194" y="90" type="curve"/>
      <point x="194" y="90"/>
      <point x="194" y="253"/>
      <point x="194" y="253" type="curve"/>
      <point x="194" y="360"/>
      <point x="261" y="405"/>
      <point x="320" y="405" type="curve" smooth="yes"/>
      <point x="377" y="405"/>
      <point x="435" y="372"/>
      <point x="435" y="295" type="curve"/>
      <point x="435" y="295"/>
      <point x="435" y="90"/>
      <point x="435" y="90" type="curve"/>
      <point x="435" y="90"/>
      <point x="367" y="39"/>
      <point x="367" y="39" type="curve"/>
      <point x="367" y="39"/>
      <point x="367" y="0"/>
      <point x="367" y="0" type="curve"/>
      <point x="367" y="0"/>
      <point x="568" y="0"/>
      <point x="568" y="0" type="curve"/>
      <point x="568" y="0"/>
      <point x="568" y="39"/>
      <point x="568" y="39" type="curve"/>
      <point x="568" y="39"/>
      <point x="502" y="90"/>
      <point x="502" y="90" type="curve"/>
      <point x="502" y="90"/>
      <point x="502" y="308"/>
      <point x="502" y="308" type="curve"/>
      <point x="502" y="412"/>
      <point x="429" y="498"/>
      <point x="314" y="498" type="curve" smooth="yes"/>
      <point x="224" y="498"/>
      <point x="182" y="419"/>
      <point x="182" y="419" type="curve"/>
      <point x="173" y="482" type="line"/>
      <point x="165" y="492" type="line"/>
      <point x="165" y="492"/>
      <point x="40" y="492"/>
      <point x="40" y="492" type="curve"/>
    </contour>
  </outline>
</glyph>
<glyph name="o" format="1">
  <advance width="549"/>
  <unicode hex="006F"/>
  <outline>
    <contour>
      <point x="275" y="498" type="curve" smooth="yes"/>
      <point x="153" y="498"/>
      <point x="40" y="390"/>
      <point x="40" y="240" type="curve" smooth="yes"/>
      <point x="40" y="89"/>
      <point x="160" y="-14"/>
      <point x="273" y="-14" type="curve" smooth="yes"/>
      <point x="387" y="-14"/>
      <point x="509" y="86"/>
      <point x="509" y="243" type="curve" smooth="yes"/>
      <point x="509" y="390"/>
      <point x="386" y="498"/>
    </contour>
    <contour>
      <point x="274" y="408" type="curve" smooth="yes"/>
      <point x="353" y="408"/>
      <point x="438" y="346"/>
      <point x="438" y="243" type="curve" smooth="yes"/>
      <point x="438" y="138"/>
      <point x="353" y="75"/>
      <point x="273" y="75" type="curve" smooth="yes"/>
      <point x="192" y="75"/>
      <point x="108" y="137"/>
      <point x="108" y="241" type="curve" smooth="yes"/>
      <point x="108" y="346"/>
      <point x="191" y="408"/>
    </contour>
  </outline>
</glyph>
<glyph name="p" format="1">
  <advance width="583"/>
  <unicode hex="0070"/>
  <outline>
    <contour>
      <point x="87" y="-161" type="line"/>
      <point x="19" y="-212" type="line"/>
      <point x="19" y="-250" type="line"/>
      <point x="220" y="-250" type="line"/>
      <point x="220" y="-212" type="line"/>
      <point x="156" y="-162" type="line"/>
      <point x="156" y="62" type="line"/>
      <point x="156" y="62"/>
      <point x="204" y="-14"/>
      <point x="317" y="-14" type="curve" smooth="yes"/>
      <point x="427" y="-14"/>
      <point x="554" y="75"/>
      <point x="554" y="241" type="curve" smooth="yes"/>
      <point x="554" y="395"/>
      <point x="439" y="498"/>
      <point x="316" y="498" type="curve" smooth="yes"/>
      <point x="204" y="498"/>
      <point x="140" y="404"/>
      <point x="140" y="404" type="curve"/>
      <point x="133" y="482" type="line"/>
      <point x="124" y="492" type="line"/>
      <point x="0" y="492" type="line"/>
      <point x="0" y="402" type="line"/>
      <point x="87" y="402" type="line"/>
    </contour>
    <contour>
      <point x="315" y="75" type="curve" smooth="yes"/>
      <point x="221" y="75"/>
      <point x="153" y="146"/>
      <point x="153" y="241" type="curve" smooth="yes"/>
      <point x="153" y="339"/>
      <point x="223" y="408"/>
      <point x="317" y="408" type="curve" smooth="yes"/>
      <point x="413" y="408"/>
      <point x="483" y="329"/>
      <point x="483" y="241" type="curve" smooth="yes"/>
      <point x="483" y="158"/>
      <point x="414" y="75"/>
    </contour>
  </outline>
</glyph>
<glyph name="q" format="1">
  <advance width="582"/>
  <unicode hex="0071"/>
  <outline>
    <contour>
      <point x="492" y="492" type="line"/>
      <point x="455" y="492" type="line"/>
      <point x="426" y="421" type="line"/>
      <point x="426" y="421"/>
      <point x="362" y="498"/>
      <point x="265" y="498" type="curve" smooth="yes"/>
      <point x="141" y="498"/>
      <point x="25" y="397"/>
      <point x="25" y="239" type="curve" smooth="yes"/>
      <point x="25" y="89"/>
      <point x="136" y="-14"/>
      <point x="268" y="-14" type="curve"/>
      <point x="363" y="-14"/>
      <point x="423" y="60"/>
      <point x="423" y="60" type="curve"/>
      <point x="423" y="-162" type="line"/>
      <point x="359" y="-212" type="line"/>
      <point x="359" y="-250" type="line"/>
      <point x="560" y="-250" type="line"/>
      <point x="560" y="-212" type="line"/>
      <point x="492" y="-161" type="line"/>
    </contour>
    <contour>
      <point x="267" y="75" type="curve" smooth="yes"/>
      <point x="170" y="75"/>
      <point x="96" y="150"/>
      <point x="96" y="241" type="curve" smooth="yes"/>
      <point x="96" y="324"/>
      <point x="159" y="408"/>
      <point x="264" y="408" type="curve" smooth="yes"/>
      <point x="354" y="408"/>
      <point x="426" y="342"/>
      <point x="426" y="241" type="curve" smooth="yes"/>
      <point x="426" y="147"/>
      <point x="360" y="75"/>
    </contour>
  </outline>
</glyph>
<glyph name="r" format="1">
  <advance width="419"/>
  <unicode hex="0072"/>
  <outline>
    <contour>
      <point x="184" y="348" type="line"/>
      <point x="184" y="90" type="line"/>
      <point x="184" y="90"/>
      <point x="250" y="39"/>
      <point x="250" y="39" type="curve"/>
      <point x="250" y="39"/>
      <point x="250" y="0"/>
      <point x="250" y="0" type="curve"/>
      <point x="250" y="0"/>
      <point x="49" y="0"/>
      <point x="49" y="0" type="curve"/>
      <point x="49" y="0"/>
      <point x="49" y="39"/>
      <point x="49" y="39" type="curve"/>
      <point x="49" y="39"/>
      <point x="117" y="90"/>
      <point x="117" y="90" type="curve"/>
      <point x="117" y="90"/>
      <point x="117" y="402"/>
      <point x="117" y="402" type="curve"/>
      <point x="117" y="402"/>
      <point x="30" y="402"/>
      <point x="30" y="402" type="curve"/>
      <point x="30" y="402"/>
      <point x="30" y="492"/>
      <point x="30" y="492" type="curve"/>
      <point x="30" y="492"/>
      <point x="155" y="492"/>
      <point x="155" y="492" type="curve"/>
      <point x="163" y="482" type="line"/>
      <point x="170" y="427" type="line"/>
      <point x="232" y="492" type="line"/>
      <point x="232" y="492"/>
      <point x="278" y="464"/>
      <point x="332" y="464" type="curve" smooth="yes"/>
      <point x="378" y="464"/>
      <point x="419" y="498"/>
      <point x="419" y="498" type="curve"/>
      <point x="412" y="441"/>
      <point x="399" y="408"/>
      <point x="399" y="408" type="curve"/>
      <point x="314" y="359"/>
      <point x="232" y="398"/>
      <point x="232" y="398" type="curve"/>
    </contour>
  </outline>
</glyph>
<glyph name="s" format="1">
  <advance width="408"/>
  <unicode hex="0073"/>
  <outline>
    <contour>
      <point x="186" y="498" type="curve" smooth="yes"/>
      <point x="250" y="498"/>
      <point x="276" y="460"/>
      <point x="276" y="460" type="curve"/>
      <point x="276" y="460"/>
      <point x="288" y="492"/>
      <point x="288" y="492" type="curve"/>
      <point x="288" y="492"/>
      <point x="327" y="492"/>
      <point x="327" y="492" type="curve"/>
      <point x="327" y="492"/>
      <point x="327" y="329"/>
      <point x="327" y="329" type="curve"/>
      <point x="327" y="329"/>
      <point x="294" y="329"/>
      <point x="294" y="329" type="curve"/>
      <point x="294" y="329"/>
      <point x="283" y="421"/>
      <point x="188" y="421" type="curve"/>
      <point x="134" y="421"/>
      <point x="116" y="389"/>
      <point x="116" y="361" type="curve" smooth="yes"/>
      <point x="116" y="340"/>
      <point x="126" y="312"/>
      <point x="172" y="302" type="curve" smooth="yes"/>
      <point x="245" y="286" type="line" smooth="yes"/>
      <point x="336" y="266"/>
      <point x="368" y="202"/>
      <point x="368" y="141" type="curve" smooth="yes"/>
      <point x="368" y="84"/>
      <point x="321" y="-13"/>
      <point x="204" y="-13" type="curve"/>
      <point x="94" y="-13"/>
      <point x="40" y="80"/>
      <point x="40" y="134" type="curve" smooth="yes"/>
      <point x="40" y="163"/>
      <point x="44" y="173"/>
      <point x="44" y="173" type="curve"/>
      <point x="44" y="173"/>
      <point x="80" y="185"/>
      <point x="80" y="185" type="curve"/>
      <point x="80" y="114"/>
      <point x="126" y="70"/>
      <point x="208" y="70" type="curve" smooth="yes"/>
      <point x="283" y="70"/>
      <point x="308" y="105"/>
      <point x="308" y="138" type="curve" smooth="yes"/>
      <point x="308" y="169"/>
      <point x="284" y="194"/>
      <point x="238" y="204" type="curve" smooth="yes"/>
      <point x="159" y="222" type="line" smooth="yes"/>
      <point x="76" y="241"/>
      <point x="54" y="308"/>
      <point x="54" y="360" type="curve" smooth="yes"/>
      <point x="54" y="426"/>
      <point x="98" y="498"/>
    </contour>
  </outline>
</glyph>
<glyph name="t" format="1">
  <advance width="395"/>
  <unicode hex="0074"/>
  <outline>
    <contour>
      <point x="41" y="492" type="line"/>
      <point x="79" y="492" type="line"/>
      <point x="79" y="688" type="line"/>
      <point x="147" y="688" type="line"/>
      <point x="147" y="492" type="line"/>
      <point x="307" y="492" type="line"/>
      <point x="277" y="400" type="line"/>
      <point x="147" y="400" type="line"/>
      <point x="147" y="164" type="line" smooth="yes"/>
      <point x="147" y="105"/>
      <point x="179" y="70"/>
      <point x="224" y="70" type="curve" smooth="yes"/>
      <point x="268" y="70"/>
      <point x="311" y="105"/>
      <point x="311" y="163" type="curve"/>
      <point x="346" y="178" type="line"/>
      <point x="346" y="178"/>
      <point x="353" y="165"/>
      <point x="353" y="127" type="curve" smooth="yes"/>
      <point x="353" y="66"/>
      <point x="303" y="-13"/>
      <point x="224" y="-13" type="curve" smooth="yes"/>
      <point x="137" y="-13"/>
      <point x="79" y="66"/>
      <point x="79" y="128" type="curve" smooth="yes"/>
      <point x="79" y="400" type="line"/>
      <point x="10" y="400" type="line"/>
    </contour>
  </outline>
</glyph>
<glyph name="u" format="1">
  <advance width="612"/>
  <unicode hex="0075"/>
  <outline>
    <contour>
      <point x="575" y="121" type="line"/>
      <point x="575" y="121"/>
      <point x="573" y="82"/>
      <point x="526" y="82" type="curve"/>
      <point x="482" y="82"/>
      <point x="482" y="139"/>
      <point x="482" y="160" type="curve"/>
      <point x="482" y="160"/>
      <point x="482" y="482"/>
      <point x="482" y="482" type="curve"/>
      <point x="474" y="492" type="line"/>
      <point x="328" y="492" type="line"/>
      <point x="328" y="492"/>
      <point x="328" y="402"/>
      <point x="328" y="402" type="curve"/>
      <point x="328" y="402"/>
      <point x="415" y="402"/>
      <point x="415" y="402" type="curve"/>
      <point x="415" y="402"/>
      <point x="415" y="228"/>
      <point x="415" y="228" type="curve"/>
      <point x="415" y="168"/>
      <point x="395" y="78"/>
      <point x="293" y="78" type="curve" smooth="yes"/>
      <point x="236" y="78"/>
      <point x="174" y="104"/>
      <point x="174" y="211" type="curve"/>
      <point x="174" y="482" type="line"/>
      <point x="166" y="492" type="line"/>
      <point x="20" y="492" type="line"/>
      <point x="20" y="492"/>
      <point x="20" y="402"/>
      <point x="20" y="402" type="curve"/>
      <point x="20" y="402"/>
      <point x="107" y="402"/>
      <point x="107" y="402" type="curve"/>
      <point x="107" y="402"/>
      <point x="107" y="157"/>
      <point x="107" y="157" type="curve"/>
      <point x="107" y="53"/>
      <point x="194" y="-13"/>
      <point x="295" y="-13" type="curve" smooth="yes"/>
      <point x="393" y="-13"/>
      <point x="429" y="58"/>
      <point x="429" y="58" type="curve"/>
      <point x="429" y="58"/>
      <point x="462" y="0"/>
      <point x="514" y="0" type="curve"/>
      <point x="597" y="0"/>
      <point x="612" y="106"/>
      <point x="612" y="136" type="curve"/>
    </contour>
  </outline>
</glyph>
<glyph name="v" format="1">
  <advance width="542"/>
  <unicode hex="0076"/>
  <outline>
    <contour>
      <point x="241" y="0" type="line"/>
      <point x="241" y="0"/>
      <point x="51" y="402"/>
      <point x="51" y="402" type="curve"/>
      <point x="51" y="402"/>
      <point x="-15" y="453"/>
      <point x="-15" y="453" type="curve"/>
      <point x="-15" y="453"/>
      <point x="-15" y="492"/>
      <point x="-15" y="492" type="curve"/>
      <point x="-15" y="492"/>
      <point x="186" y="492"/>
      <point x="186" y="492" type="curve"/>
      <point x="186" y="492"/>
      <point x="186" y="453"/>
      <point x="186" y="453" type="curve"/>
      <point x="186" y="453"/>
      <point x="134" y="422"/>
      <point x="134" y="422" type="curve"/>
      <point x="281" y="103" type="line"/>
      <point x="415" y="404" type="line"/>
      <point x="415" y="404"/>
      <point x="353" y="453"/>
      <point x="353" y="453" type="curve"/>
      <point x="353" y="453"/>
      <point x="353" y="492"/>
      <point x="353" y="492" type="curve"/>
      <point x="353" y="492"/>
      <point x="554" y="492"/>
      <point x="554" y="492" type="curve"/>
      <point x="554" y="492"/>
      <point x="554" y="453"/>
      <point x="554" y="453" type="curve"/>
      <point x="554" y="453"/>
      <point x="486" y="402"/>
      <point x="486" y="402" type="curve"/>
      <point x="313" y="0" type="line"/>
    </contour>
  </outline>
</glyph>
<glyph name="w" format="1">
  <advance width="765"/>
  <unicode hex="0077"/>
  <outline>
    <contour>
      <point x="232" y="0" type="line"/>
      <point x="36" y="402" type="line"/>
      <point x="-30" y="453" type="line"/>
      <point x="-30" y="492" type="line"/>
      <point x="119" y="492" type="line"/>
      <point x="119" y="422" type="line"/>
      <point x="275" y="95" type="line"/>
      <point x="330" y="221" type="line"/>
      <point x="245" y="402" type="line"/>
      <point x="179" y="453" type="line"/>
      <point x="179" y="492" type="line"/>
      <point x="380" y="492" type="line"/>
      <point x="380" y="453" type="line"/>
      <point x="328" y="422" type="line"/>
      <point x="482" y="95" type="line"/>
      <point x="630" y="404" type="line"/>
      <point x="568" y="453" type="line"/>
      <point x="568" y="492" type="line"/>
      <point x="769" y="492" type="line"/>
      <point x="769" y="453" type="line"/>
      <point x="701" y="402" type="line"/>
      <point x="511" y="0" type="line"/>
      <point x="439" y="0" type="line"/>
      <point x="371" y="139" type="line"/>
      <point x="304" y="0" type="line"/>
    </contour>
  </outline>
</glyph>
<glyph name="x" format="1">
  <advance width="551"/>
  <unicode hex="0078"/>
  <outline>
    <contour>
      <point x="30" y="40" type="line"/>
      <point x="232" y="244" type="line"/>
      <point x="30" y="453" type="line"/>
      <point x="30" y="492" type="line"/>
      <point x="192" y="492" type="line"/>
      <point x="192" y="453" type="line"/>
      <point x="157" y="435" type="line"/>
      <point x="275" y="291" type="line"/>
      <point x="400" y="428" type="line"/>
      <point x="359" y="453" type="line"/>
      <point x="359" y="492" type="line"/>
      <point x="521" y="492" type="line"/>
      <point x="521" y="453" type="line"/>
      <point x="314" y="248" type="line"/>
      <point x="521" y="39" type="line"/>
      <point x="521" y="0" type="line"/>
      <point x="359" y="0" type="line"/>
      <point x="359" y="39" type="line"/>
      <point x="395" y="63" type="line"/>
      <point x="274" y="202" type="line"/>
      <point x="149" y="65" type="line"/>
      <point x="192" y="39" type="line"/>
      <point x="192" y="0" type="line"/>
      <point x="30" y="0" type="line"/>
    </contour>
  </outline>
</glyph>
<glyph name="y" format="1">
  <advance width="538"/>
  <unicode hex="0079"/>
  <outline>
    <contour>
      <point x="35" y="-58" type="line"/>
      <point x="20" y="-101"/>
      <point x="53" y="-162"/>
      <point x="112" y="-162" type="curve"/>
      <point x="165" y="-162"/>
      <point x="187" y="-119"/>
      <point x="203" y="-79" type="curve" smooth="yes"/>
      <point x="259" y="59" type="line"/>
      <point x="259" y="59"/>
      <point x="82" y="402"/>
      <point x="82" y="402" type="curve"/>
      <point x="82" y="402"/>
      <point x="16" y="453"/>
      <point x="16" y="453" type="curve"/>
      <point x="16" y="453"/>
      <point x="16" y="492"/>
      <point x="16" y="492" type="curve"/>
      <point x="16" y="492"/>
      <point x="217" y="492"/>
      <point x="217" y="492" type="curve"/>
      <point x="217" y="492"/>
      <point x="217" y="453"/>
      <point x="217" y="453" type="curve"/>
      <point x="217" y="453"/>
      <point x="171" y="422"/>
      <point x="171" y="422" type="curve"/>
      <point x="171" y="422"/>
      <point x="299" y="156"/>
      <point x="299" y="156" type="curve"/>
      <point x="400" y="404" type="line"/>
      <point x="400" y="404"/>
      <point x="338" y="453"/>
      <point x="338" y="453" type="curve"/>
      <point x="338" y="453"/>
      <point x="338" y="492"/>
      <point x="338" y="492" type="curve"/>
      <point x="338" y="492"/>
      <point x="539" y="492"/>
      <point x="539" y="492" type="curve"/>
      <point x="539" y="492"/>
      <point x="539" y="453"/>
      <point x="539" y="453" type="curve"/>
      <point x="539" y="453"/>
      <point x="471" y="402"/>
      <point x="471" y="402" type="curve"/>
      <point x="252" y="-135" type="line" smooth="yes"/>
      <point x="232" y="-184"/>
      <point x="187" y="-250"/>
      <point x="107" y="-250" type="curve"/>
      <point x="22" y="-250"/>
      <point x="-18" y="-163"/>
      <point x="-18" y="-105" type="curve"/>
      <point x="-18" y="-65"/>
      <point x="-1" y="-30"/>
      <point x="3" y="-32" type="curve"/>
    </contour>
  </outline>
</glyph>
<glyph name="z" format="1">
  <advance width="482"/>
  <unicode hex="007A"/>
  <outline>
    <contour>
      <point x="30" y="40" type="line"/>
      <point x="335" y="412" type="line"/>
      <point x="137" y="412" type="line"/>
      <point x="108" y="353" type="line"/>
      <point x="70" y="353" type="line"/>
      <point x="70" y="492" type="line"/>
      <point x="455" y="492" type="line"/>
      <point x="455" y="453" type="line"/>
      <point x="155" y="87" type="line"/>
      <point x="192" y="105" type="line" smooth="yes"/>
      <point x="237" y="127"/>
      <point x="300" y="67"/>
      <point x="371" y="67" type="curve"/>
      <point x="439" y="67"/>
      <point x="434" y="108"/>
      <point x="434" y="108" type="curve"/>
      <point x="472" y="123" type="line"/>
      <point x="472" y="87"/>
      <point x="458" y="37"/>
      <point x="436" y="15" type="curve" smooth="yes"/>
      <point x="412" y="-9"/>
      <point x="397" y="-15"/>
      <point x="355" y="-13" type="curve"/>
      <point x="291" y="-13"/>
      <point x="196" y="36"/>
      <point x="160" y="26" type="curve" smooth="yes"/>
      <point x="70" y="0" type="line"/>
    </contour>
  </outline>
</glyph>
<glyph name="acute" format="1">
  <advance width="833"/>
  <unicode hex="00B4"/>
  <outline>
    <contour>
      <point x="329" y="583" type="line"/>
      <point x="566" y="660"/>
      <point x="594" y="812"/>
      <point x="513" y="812" type="curve"/>
      <point x="513" y="812"/>
      <point x="475" y="812"/>
      <point x="475" y="812" type="curve"/>
      <point x="475" y="812"/>
      <point x="464" y="691"/>
      <point x="303" y="624" type="curve"/>
    </contour>
  </outline>
</glyph>
<glyph name="emdash" format="1">
  <advance width="721"/>
  <unicode hex="2014"/>
  <outline>
    <contour>
      <point x="155" y="230" type="curve"/>
      <point x="575" y="230" type="line" smooth="yes"/>
      <point x="672" y="230"/>
      <point x="681" y="333"/>
      <point x="681" y="379" type="curve"/>
      <point x="640" y="361" type="line"/>
      <point x="640" y="341"/>
      <point x="618" y="317"/>
      <point x="565" y="317" type="curve" smooth="yes"/>
      <point x="147" y="317" type="line" smooth="yes"/>
      <point x="51" y="317"/>
      <point x="40" y="214"/>
      <point x="40" y="168" type="curve"/>
      <point x="81" y="186" type="line"/>
      <point x="81" y="205"/>
      <point x="101" y="230"/>
    </contour>
  </outline>
</glyph>
